<?xml version="1.0" encoding="utf-8"?>
<!-- Generator: Adobe Illustrator 25.2.1, SVG Export Plug-In . SVG Version: 6.00 Build 0)  -->
<svg version="1.1" id="Layer_1" xmlns="http://www.w3.org/2000/svg" xmlns:xlink="http://www.w3.org/1999/xlink" x="0px" y="0px"
	 viewBox="0 0 22.7 22.7" style="enable-background:new 0 0 22.7 22.7;" xml:space="preserve">
<style type="text/css">
	.st0{fill:#29E1CB;}
	.st1{fill:#242933;}
</style>
<g>
	<path class="st0" d="M6.4,20.1c-1.2,0-2.1-0.9-2.1-2.1V4.7c0-1.2,0.9-2.1,2.1-2.1h1.1c1.2,0,2.1,0.9,2.1,2.1V18
		c0,1.2-0.9,2.1-2.1,2.1H6.4z"/>
	<path class="st1" d="M7.5,3.6c0.7,0,1.1,0.4,1.1,1.1V18c0,0.7-0.4,1.1-1.1,1.1H6.4c-0.7,0-1.1-0.4-1.1-1.1V4.7
		c0-0.7,0.4-1.1,1.1-1.1H7.5 M7.5,1.6H6.4c-1.8,0-3.1,1.3-3.1,3.1V18c0,1.8,1.3,3.1,3.1,3.1h1.1c1.8,0,3.1-1.3,3.1-3.1V4.7
		C10.6,2.9,9.2,1.6,7.5,1.6L7.5,1.6z"/>
</g>
<g>
	<path class="st0" d="M15.2,20.1c-1.2,0-2.1-0.9-2.1-2.1V4.7c0-1.2,0.9-2.1,2.1-2.1h1.1c1.2,0,2.1,0.9,2.1,2.1V18
		c0,1.2-0.9,2.1-2.1,2.1H15.2z"/>
	<path class="st1" d="M16.3,3.6c0.7,0,1.1,0.4,1.1,1.1V18c0,0.7-0.4,1.1-1.1,1.1h-1.1c-0.7,0-1.1-0.4-1.1-1.1V4.7
		c0-0.7,0.4-1.1,1.1-1.1H16.3 M16.3,1.6h-1.1c-1.8,0-3.1,1.3-3.1,3.1V18c0,1.8,1.3,3.1,3.1,3.1h1.1c1.8,0,3.1-1.3,3.1-3.1V4.7
		C19.4,2.9,18.1,1.6,16.3,1.6L16.3,1.6z"/>
</g>
</svg>
